<svg version="1.1" xmlns="http://www.w3.org/2000/svg"
	width="38pt" height="35pt" viewBox="0 0 1470 1598"
	xml:space="preserve" preserveAspectRatio="xMidYMid meet">
<path fill="#0B2891" opacity="1.000000" stroke="none" 
	d="
M1.000000,635.000000 
	C1.000000,513.644043 1.000000,392.288055 1.359229,270.503540 
	C12.017797,275.318726 22.081320,281.107269 32.667133,285.689178 
	C52.725880,294.371277 72.659584,303.688721 93.417313,310.328552 
	C124.749519,320.350861 156.609344,328.831116 188.502716,336.954559 
	C210.428635,342.539215 232.702255,346.903046 254.981232,350.921112 
	C283.741608,356.108154 312.620239,360.688904 341.527588,364.996002 
	C364.395325,368.403168 387.353790,371.261292 410.326447,373.886475 
	C431.028046,376.252136 451.790802,378.117188 472.550476,379.929260 
	C490.349457,381.482880 508.174408,382.766327 526.002319,383.952911 
	C543.349670,385.107483 560.710144,386.090820 578.074524,386.957520 
	C594.313416,387.768066 610.562683,388.389282 626.811646,388.976318 
	C638.919678,389.413757 651.035706,389.987823 663.145996,389.941254 
	C714.589966,389.743408 766.034668,389.487183 817.475647,388.933350 
	C838.390869,388.708130 859.298950,387.716278 880.207336,386.987518 
	C897.455566,386.386353 914.700806,385.692535 931.944336,384.967712 
	C937.405457,384.738159 942.860596,384.326752 948.311829,383.911591 
	C965.143738,382.629639 981.973328,381.317505 998.802002,379.993225 
	C1007.383484,379.317963 1015.976685,378.743073 1024.536743,377.854553 
	C1039.004639,376.352875 1053.447632,374.611084 1067.906494,373.020996 
	C1080.895508,371.592590 1093.925293,370.484406 1106.877197,368.781067 
	C1124.899902,366.410889 1142.896240,363.803070 1160.849976,360.956573 
	C1181.586548,357.668884 1202.420898,354.742096 1222.932983,350.351746 
	C1258.360596,342.768921 1293.818359,335.094513 1328.794800,325.711761 
	C1355.621948,318.515137 1382.137939,309.683746 1408.027710,299.613953 
	C1429.595215,291.225342 1450.051514,279.980011 1471.000000,270.000000 
	C1471.000000,392.022614 1471.000000,514.045227 1470.693726,636.675781 
	C1460.686157,649.552429 1447.535645,657.136353 1433.903687,664.023560 
	C1410.463501,675.866333 1385.779053,684.592590 1360.556519,691.528320 
	C1331.205811,699.599365 1301.749146,707.535095 1271.958740,713.691956 
	C1238.654175,720.575073 1204.989380,725.826294 1171.358521,730.987305 
	C1141.643555,735.547424 1111.790039,739.258545 1081.939819,742.865784 
	C1061.588013,745.325195 1041.149292,747.105469 1020.725647,748.920166 
	C1003.247375,750.473145 985.742126,751.745300 968.235901,752.953308 
	C951.705688,754.093933 935.161621,755.044739 918.617859,755.974548 
	C905.218079,756.727722 891.815125,757.480774 878.403809,757.957703 
	C855.997253,758.754578 833.583008,759.883667 811.171814,759.889160 
	C758.392090,759.901978 705.611938,759.380310 652.832825,758.966858 
	C641.042175,758.874512 629.251953,758.419556 617.466919,757.986145 
	C601.550659,757.400879 585.634766,756.772156 569.727539,755.983582 
	C551.859802,755.097717 533.992493,754.155457 516.142456,752.973755 
	C498.967804,751.836853 481.805267,750.480530 464.656036,749.004272 
	C447.021820,747.486267 429.390198,745.891113 411.793884,743.992065 
	C392.238953,741.881470 372.685333,739.678406 353.203644,736.989990 
	C328.977325,733.646729 304.801117,729.917053 280.646515,726.081909 
	C240.604965,719.724304 200.980499,711.385986 161.725510,701.184509 
	C130.420135,693.048889 99.402039,684.091248 69.396133,671.939636 
	C45.247540,662.160156 21.387779,651.775208 1.000000,635.000000 
z"/>
<path fill="#333333" opacity="1.000000" stroke="none" 
	d="
M1471.000000,709.000000 
	C1471.000000,831.356018 1471.000000,953.711975 1470.714722,1076.701660 
	C1469.042480,1078.488037 1467.655518,1079.640991 1466.214478,1080.838745 
	C1465.639771,1080.445801 1465.228271,1080.211060 1464.869873,1079.912598 
	C1454.290771,1071.104980 1444.082397,1061.800415 1433.059692,1053.588867 
	C1414.848267,1040.022217 1394.887085,1029.437134 1373.813110,1020.889465 
	C1342.824463,1008.320312 1310.519897,1002.290894 1277.250244,1001.088257 
	C1269.807373,1000.819214 1262.305420,1001.438232 1254.863892,1002.051208 
	C1244.129028,1002.935608 1233.308472,1003.534668 1222.729370,1005.410767 
	C1195.260986,1010.282043 1168.959595,1018.890930 1143.963379,1031.448853 
	C1117.010742,1044.989624 1092.717285,1062.134888 1071.149536,1083.263428 
	C1054.086060,1099.979370 1039.090820,1118.356567 1026.965454,1138.854004 
	C1019.380615,1151.675781 1013.014343,1165.261230 1006.765137,1178.810181 
	C1004.054749,1184.686523 1002.749817,1189.214478 994.140320,1189.428955 
	C972.626526,1189.965454 951.167297,1192.473389 929.669556,1193.947998 
	C916.423584,1194.856445 903.150696,1195.404297 889.883545,1195.963135 
	C871.963257,1196.717896 854.039856,1197.424072 836.112244,1197.970581 
	C820.487488,1198.447021 804.853882,1198.999634 789.226257,1198.944458 
	C753.266785,1198.817627 717.306152,1198.501221 681.350647,1197.953369 
	C655.585876,1197.561157 629.825684,1196.766357 604.069336,1195.962646 
	C589.805176,1195.517700 575.546082,1194.810181 561.297302,1193.998413 
	C539.766724,1192.771973 518.238831,1191.472290 496.725800,1189.973145 
	C480.690857,1188.855835 464.662354,1187.568726 448.665100,1186.007324 
	C426.729431,1183.866333 404.799805,1181.614258 382.916016,1179.004028 
	C359.384033,1176.197144 335.834961,1173.388062 312.427307,1169.724365 
	C286.537170,1165.671875 260.756409,1160.873779 235.003418,1156.001709 
	C184.178131,1146.385986 134.062180,1133.844971 85.310059,1116.508545 
	C55.518036,1105.914429 26.444990,1093.434692 1.000000,1074.000000 
	C1.000000,952.644043 1.000000,831.288086 1.334935,709.568359 
	C9.603252,713.040894 17.522600,716.906555 25.472605,720.708069 
	C51.518715,733.162659 78.808693,742.288574 106.539970,749.977783 
	C131.486221,756.894714 156.614960,763.226868 181.846588,769.017822 
	C202.033051,773.650940 222.457489,777.290405 242.845840,780.987488 
	C260.612030,784.209045 278.453461,787.037903 296.303131,789.769409 
	C309.243591,791.749634 322.246155,793.331238 335.231537,795.009277 
	C347.065063,796.538391 358.905731,798.017944 370.756256,799.408569 
	C381.616516,800.682983 392.484497,801.908325 403.366821,802.974182 
	C415.244965,804.137512 427.145844,805.066467 439.032471,806.145569 
	C452.881531,807.402893 466.713776,808.867310 480.576050,809.951111 
	C492.319733,810.869263 504.098175,811.334778 515.856934,812.069153 
	C536.381775,813.351013 556.894958,814.837341 577.428650,815.949951 
	C594.009094,816.848267 610.609558,817.412292 627.206604,817.957825 
	C641.492432,818.427490 655.787292,818.991760 670.075989,818.939941 
	C718.197632,818.765503 766.318787,818.384888 814.439087,817.969360 
	C827.403564,817.857422 840.367798,817.437256 853.326233,816.987610 
	C869.751770,816.417725 886.176025,815.773376 902.591919,814.976990 
	C920.655579,814.100586 938.716614,813.133118 956.765015,811.988159 
	C975.464478,810.801819 994.158875,809.495300 1012.834473,807.982544 
	C1031.001343,806.510986 1049.163086,804.916077 1067.287964,803.004944 
	C1090.517944,800.555420 1113.747314,798.027954 1136.906494,794.996826 
	C1162.540039,791.641785 1188.201904,788.293701 1213.655640,783.827026 
	C1245.356934,778.263977 1277.002441,772.207031 1308.410522,765.192078 
	C1352.104492,755.433228 1395.133057,743.172913 1436.432129,725.593811 
	C1448.180542,720.592957 1459.489502,714.559753 1471.000000,709.000000 
M819.620972,1082.933350 
	C807.676392,1080.165894 795.731873,1077.398315 782.721313,1074.383667 
	C800.877380,1062.221680 805.595947,1057.954346 812.067932,1047.146851 
	C824.455200,1026.461060 827.631104,1003.942322 825.153259,980.299988 
	C821.226807,942.835144 797.601562,907.229675 749.674255,903.460815 
	C710.734070,900.398621 675.289185,919.117859 660.783203,957.854370 
	C654.093384,975.718750 652.953247,994.122925 655.003906,1012.937683 
	C659.166138,1051.127441 684.267273,1079.335083 721.811951,1086.398682 
	C733.762512,1088.647095 745.555969,1090.631958 756.958252,1095.194580 
	C772.525635,1101.423828 788.452515,1106.759033 804.256897,1112.388550 
	C807.766479,1113.638550 811.408325,1114.517334 815.171021,1115.620361 
	C819.136963,1104.924316 822.870483,1094.855225 826.696106,1084.537720 
	C824.256897,1083.954956 822.338745,1083.496704 819.620972,1082.933350 
M573.049133,1087.435669 
	C588.046387,1086.198242 602.147339,1082.426758 614.565857,1073.422852 
	C639.963928,1055.008423 643.434143,1012.695679 615.305298,993.055176 
	C607.219543,987.409485 597.910095,983.469727 589.014404,979.043823 
	C580.262146,974.689209 570.765198,971.581360 562.602112,966.353760 
	C551.524231,959.259705 552.997314,944.918396 565.133667,939.758301 
	C570.605896,937.431763 577.042053,936.595215 583.063293,936.500122 
	C595.339661,936.306213 607.118103,939.332947 618.734375,944.758423 
	C621.768799,933.823120 624.724182,923.172546 628.061584,911.145447 
	C618.172974,908.857483 608.800476,905.929138 599.207275,904.629944 
	C580.150879,902.049072 561.375854,903.090271 543.564392,911.657166 
	C509.006683,928.278809 503.074371,975.074036 537.225891,996.846863 
	C544.733154,1001.633179 553.099487,1005.106506 561.187317,1008.937317 
	C568.381165,1012.344604 575.953674,1015.003052 582.962646,1018.736328 
	C590.429626,1022.713684 594.660522,1029.029785 593.191772,1038.031372 
	C591.748047,1046.879761 585.543457,1051.520752 577.616760,1052.733887 
	C569.501465,1053.975952 560.906311,1054.517212 552.865906,1053.223267 
	C541.826477,1051.446777 531.111694,1047.653442 519.991699,1044.652466 
	C517.512756,1054.730957 514.825806,1065.654907 512.065369,1076.877930 
	C531.394531,1085.722046 551.350708,1088.884644 573.049133,1087.435669 
M947.498352,1084.963623 
	C952.941284,1084.963623 958.384216,1084.963623 963.822754,1084.963623 
	C963.822754,1073.353394 963.822754,1062.301636 963.822754,1050.802246 
	C940.105652,1050.802246 916.708374,1050.802246 892.834167,1050.802246 
	C892.834167,1002.309082 892.834167,954.268005 892.834167,906.263062 
	C879.237488,906.263062 866.127136,906.263062 852.832520,906.263062 
	C852.832520,965.852539 852.832520,1025.215210 852.832520,1084.963623 
	C884.249268,1084.963623 915.374023,1084.963623 947.498352,1084.963623 
z"/>
<path fill="#0B2891" opacity="1.000000" stroke="none" 
	d="
M660.000000,1.000003 
	C713.687561,1.000000 767.375122,1.000000 821.824890,1.299701 
	C844.474548,2.399536 866.364807,3.130617 888.248352,4.026626 
	C900.672668,4.535331 913.092285,5.211894 925.502563,5.994621 
	C945.341797,7.245904 965.179504,8.541089 985.002686,10.021615 
	C1000.348450,11.167745 1015.690735,12.430900 1030.998779,13.992522 
	C1052.043823,16.139385 1073.088501,18.354877 1094.072144,21.021904 
	C1118.317139,24.103436 1142.619141,27.009134 1166.672729,31.256935 
	C1198.734741,36.918972 1230.780029,42.958668 1262.457764,50.425232 
	C1287.872437,56.415573 1312.843872,64.404877 1337.801758,72.181854 
	C1362.718506,79.945992 1386.600952,90.303047 1409.393555,103.124840 
	C1424.122803,111.410728 1437.722900,121.231857 1448.435425,134.286926 
	C1453.589111,140.567459 1458.408447,148.000763 1460.547607,155.698853 
	C1465.434814,173.287781 1459.994751,188.994858 1447.982300,202.519119 
	C1435.392090,216.693878 1420.351929,227.919952 1403.455322,236.057190 
	C1383.774536,245.535217 1363.632080,254.223511 1343.177856,261.887848 
	C1309.131836,274.645020 1273.815063,283.220734 1238.319214,290.886688 
	C1219.280884,294.998383 1200.120483,298.587860 1180.938843,301.981171 
	C1163.519043,305.062805 1146.014404,307.685242 1128.512573,310.277374 
	C1112.325684,312.674744 1096.116821,314.960876 1079.873047,316.927765 
	C1066.075317,318.598480 1052.212646,319.730896 1038.381226,321.125610 
	C1022.423340,322.734802 1006.479309,324.492767 990.508179,325.955963 
	C977.649536,327.133972 964.768188,328.105652 951.881348,328.923859 
	C933.855591,330.068329 915.819153,331.059631 897.780212,331.976227 
	C882.538147,332.750702 867.288940,333.409821 852.037231,333.962738 
	C839.248779,334.426300 826.450867,334.990540 813.659302,334.942474 
	C762.034729,334.748474 710.409485,334.478821 658.787781,333.927704 
	C639.366760,333.720337 619.949280,332.800140 600.540161,331.971039 
	C580.991943,331.135956 561.450256,330.111664 541.916809,328.978363 
	C527.698547,328.153412 513.490356,327.117249 499.292267,325.991211 
	C484.117126,324.787628 468.941376,323.542480 453.797913,322.000824 
	C432.574890,319.840210 411.337769,317.724854 390.186707,314.974670 
	C364.944763,311.692535 339.657135,308.477600 314.624847,303.935486 
	C279.973419,297.648010 245.360626,290.923950 211.078003,282.904663 
	C187.287842,277.339752 163.926971,269.755798 140.653290,262.213074 
	C110.899200,252.570145 82.418396,239.990738 56.558857,222.058655 
	C45.188778,214.174179 34.993259,205.033264 27.764791,193.125977 
	C19.456501,179.439911 17.668097,164.836197 24.092642,149.928665 
	C29.741760,136.820404 39.473515,126.883171 50.603340,118.224915 
	C70.674004,102.611275 93.420326,91.726143 116.721306,82.221992 
	C144.803894,70.767479 173.804199,61.783455 203.345428,54.856770 
	C231.697617,48.208881 260.182220,42.104839 288.689056,36.146614 
	C302.267883,33.308498 316.003632,31.169403 329.722321,29.066246 
	C344.922699,26.735933 360.178925,24.764431 375.421753,22.717995 
	C389.999695,20.760822 404.566559,18.679070 419.184509,17.073069 
	C434.151367,15.428741 449.175995,14.313390 464.172333,12.933683 
	C481.799011,11.311971 499.408569,9.482014 517.051453,8.065171 
	C532.573364,6.818654 548.121704,5.825255 563.675354,5.069186 
	C581.916199,4.182491 600.173706,3.622709 618.427124,3.017310 
	C631.216187,2.593147 644.011169,2.351880 656.801270,1.955657 
	C657.876343,1.922350 658.934143,1.331714 660.000000,1.000003 
z"/>
<path fill="#0B2891" opacity="1.000000" stroke="none" 
	d="
M826.000000,1599.000000 
	C770.312439,1599.000000 714.624878,1599.000000 658.174988,1598.700439 
	C634.359985,1597.600464 611.307739,1596.788696 588.254517,1596.005127 
	C577.469177,1595.638428 566.679688,1595.385010 555.896423,1594.966919 
	C549.774414,1594.729370 543.655396,1594.340942 537.545105,1593.884766 
	C520.716797,1592.628296 503.895569,1591.277954 487.068207,1590.008789 
	C477.327515,1589.274048 467.556427,1588.862671 457.841339,1587.885498 
	C440.083832,1586.099243 422.352570,1584.046143 404.620087,1582.019653 
	C387.211334,1580.030151 369.741241,1578.416626 352.429413,1575.776733 
	C324.825958,1571.567139 297.281708,1566.918701 269.802582,1561.956421 
	C230.519318,1554.862427 191.747528,1545.477539 153.725113,1533.320801 
	C120.539024,1522.710205 88.073700,1510.213867 58.317883,1491.662231 
	C37.117977,1478.444702 18.172983,1462.897705 6.060274,1440.380859 
	C5.499056,1439.337769 4.172688,1438.706299 2.807990,1437.548096 
	C2.095238,1441.668457 1.547616,1444.834229 0.999997,1448.000000 
	C1.000000,1348.312378 1.000000,1248.624878 1.360903,1148.506592 
	C9.237478,1151.566528 16.812864,1154.934814 24.258072,1158.569702 
	C50.711395,1171.484741 78.674736,1180.331299 106.758057,1188.683716 
	C148.510269,1201.101562 191.106583,1210.066406 233.928986,1217.890137 
	C252.774399,1221.333252 271.734955,1224.160278 290.669922,1227.094849 
	C306.335388,1229.522583 322.012238,1231.915527 337.735321,1233.921997 
	C353.307709,1235.909424 368.943726,1237.399048 384.552734,1239.098145 
	C402.619019,1241.064819 420.670044,1243.191162 438.758026,1244.933228 
	C455.064270,1246.503662 471.405640,1247.725586 487.742310,1248.958740 
	C502.439545,1250.067993 517.144287,1251.106201 531.858582,1251.954102 
	C551.392456,1253.079956 570.933533,1254.111694 590.481262,1254.958862 
	C609.545044,1255.785156 628.618042,1256.437988 647.692627,1256.963623 
	C665.311157,1257.449341 682.938049,1257.987061 700.559570,1257.933105 
	C737.513428,1257.819946 774.466736,1257.379883 811.419006,1256.966064 
	C820.213074,1256.867554 829.002502,1256.348022 837.793823,1256.015625 
	C864.332458,1255.012085 890.870605,1253.999023 917.409485,1253.003662 
	C927.032776,1252.642700 936.665833,1252.470093 946.278748,1251.931763 
	C953.209961,1251.543457 960.103577,1250.436279 967.035400,1250.119385 
	C974.097107,1249.796631 981.184998,1250.048096 988.309753,1250.048096 
	C979.648560,1321.925415 994.930664,1388.527222 1036.947266,1448.320190 
	C1078.822144,1507.911743 1136.334717,1544.910767 1206.597656,1563.348633 
	C1185.936401,1567.363037 1165.464233,1570.891235 1144.920044,1573.933350 
	C1123.040405,1577.173340 1101.122437,1580.201538 1079.164673,1582.853760 
	C1061.938843,1584.934326 1044.636719,1586.414185 1027.349976,1587.953003 
	C1010.711243,1589.434204 994.056702,1590.762207 977.394226,1591.947876 
	C961.196167,1593.100464 944.983521,1594.065186 928.769165,1594.966431 
	C914.705017,1595.748291 900.635437,1596.527588 886.557495,1596.943970 
	C868.275513,1597.484619 849.982361,1597.638550 831.695740,1598.039185 
	C829.791016,1598.080933 827.898254,1598.666626 826.000000,1599.000000 
z"/>
<path fill="#FEFEFE" opacity="1.000000" stroke="none" 
	d="
M820.020752,1082.985840 
	C822.338745,1083.496704 824.256897,1083.954956 826.696106,1084.537720 
	C822.870483,1094.855225 819.136963,1104.924316 815.171021,1115.620361 
	C811.408325,1114.517334 807.766479,1113.638550 804.256897,1112.388550 
	C788.452515,1106.759033 772.525635,1101.423828 756.958252,1095.194580 
	C745.555969,1090.631958 733.762512,1088.647095 721.811951,1086.398682 
	C684.267273,1079.335083 659.166138,1051.127441 655.003906,1012.937683 
	C652.953247,994.122925 654.093384,975.718750 660.783203,957.854370 
	C675.289185,919.117859 710.734070,900.398621 749.674255,903.460815 
	C797.601562,907.229675 821.226807,942.835144 825.153259,980.299988 
	C827.631104,1003.942322 824.455200,1026.461060 812.067932,1047.146851 
	C805.595947,1057.954346 800.877380,1062.221680 782.721313,1074.383667 
	C795.731873,1077.398315 807.676392,1080.165894 820.020752,1082.985840 
M702.090515,964.711914 
	C700.539062,971.159485 698.281616,977.530334 697.570862,984.069275 
	C695.576782,1002.416077 697.037231,1020.381653 706.929321,1036.632324 
	C722.561646,1062.313110 757.007019,1062.373413 772.928284,1036.852417 
	C778.493408,1027.931885 781.419983,1018.076843 782.485535,1007.728027 
	C784.395203,989.181824 782.927246,971.105652 773.154297,954.618469 
	C762.869568,937.267761 743.112732,930.516418 725.323730,938.223267 
	C713.750549,943.237183 707.032776,952.736084 702.090515,964.711914 
z"/>
<path fill="#FDFDFD" opacity="1.000000" stroke="none" 
	d="
M572.587463,1087.501709 
	C551.350708,1088.884644 531.394531,1085.722046 512.065369,1076.877930 
	C514.825806,1065.654907 517.512756,1054.730957 519.991699,1044.652466 
	C531.111694,1047.653442 541.826477,1051.446777 552.865906,1053.223267 
	C560.906311,1054.517212 569.501465,1053.975952 577.616760,1052.733887 
	C585.543457,1051.520752 591.748047,1046.879761 593.191772,1038.031372 
	C594.660522,1029.029785 590.429626,1022.713684 582.962646,1018.736328 
	C575.953674,1015.003052 568.381165,1012.344604 561.187317,1008.937317 
	C553.099487,1005.106506 544.733154,1001.633179 537.225891,996.846863 
	C503.074371,975.074036 509.006683,928.278809 543.564392,911.657166 
	C561.375854,903.090271 580.150879,902.049072 599.207275,904.629944 
	C608.800476,905.929138 618.172974,908.857483 628.061584,911.145447 
	C624.724182,923.172546 621.768799,933.823120 618.734375,944.758423 
	C607.118103,939.332947 595.339661,936.306213 583.063293,936.500122 
	C577.042053,936.595215 570.605896,937.431763 565.133667,939.758301 
	C552.997314,944.918396 551.524231,959.259705 562.602112,966.353760 
	C570.765198,971.581360 580.262146,974.689209 589.014404,979.043823 
	C597.910095,983.469727 607.219543,987.409485 615.305298,993.055176 
	C643.434143,1012.695679 639.963928,1055.008423 614.565857,1073.422852 
	C602.147339,1082.426758 588.046387,1086.198242 572.587463,1087.501709 
z"/>
<path fill="#FFFFFF" opacity="1.000000" stroke="none" 
	d="
M946.998535,1084.963623 
	C915.374023,1084.963623 884.249268,1084.963623 852.832520,1084.963623 
	C852.832520,1025.215210 852.832520,965.852539 852.832520,906.263062 
	C866.127136,906.263062 879.237488,906.263062 892.834167,906.263062 
	C892.834167,954.268005 892.834167,1002.309082 892.834167,1050.802246 
	C916.708374,1050.802246 940.105652,1050.802246 963.822754,1050.802246 
	C963.822754,1062.301636 963.822754,1073.353394 963.822754,1084.963623 
	C958.384216,1084.963623 952.941284,1084.963623 946.998535,1084.963623 
z"/>
<path fill="#0B2891" opacity="1.000000" stroke="none" 
	d="
M1090.252563,1140.246948 
	C1104.395386,1123.035767 1121.179199,1109.313477 1139.698730,1097.907837 
	C1163.459473,1083.274170 1189.199097,1073.553589 1216.863037,1068.851074 
	C1233.856812,1065.962280 1250.934570,1065.217285 1267.987671,1066.186890 
	C1288.877930,1067.374390 1309.267090,1071.791992 1328.967773,1079.109131 
	C1351.825684,1087.598877 1372.751221,1099.533081 1391.440430,1115.100952 
	C1420.690430,1139.465698 1442.300903,1169.454346 1455.918579,1205.109619 
	C1463.401245,1224.701416 1468.016602,1244.890381 1469.016602,1265.871948 
	C1469.308716,1271.999146 1470.010132,1278.126709 1469.941528,1284.247681 
	C1469.633911,1311.675659 1464.497437,1338.163452 1454.155029,1363.629883 
	C1441.426147,1394.972778 1422.175293,1421.773193 1397.091675,1444.238770 
	C1380.109619,1459.448608 1360.950684,1471.505249 1339.936523,1480.665039 
	C1321.269653,1488.801514 1301.856079,1494.315796 1281.788330,1496.687622 
	C1262.515869,1498.965454 1243.105713,1498.867188 1223.687744,1496.266602 
	C1200.427490,1493.151367 1178.320435,1486.543335 1157.456055,1476.075439 
	C1141.173340,1467.906250 1126.071167,1457.864014 1112.174561,1445.866333 
	C1089.475464,1426.269043 1071.711548,1403.023560 1058.687256,1376.164795 
	C1048.135010,1354.403809 1041.272217,1331.471802 1038.987549,1307.303711 
	C1038.178589,1298.745605 1036.927002,1290.143311 1037.130493,1281.590942 
	C1037.869629,1250.517578 1043.473877,1220.481201 1056.863525,1192.083618 
	C1065.677490,1173.390625 1076.383545,1156.043335 1090.252563,1140.246948 
M1153.000000,1312.649780 
	C1153.000366,1329.976318 1152.783691,1347.306519 1153.083008,1364.627808 
	C1153.260620,1374.901733 1157.897705,1382.577271 1170.396851,1382.157837 
	C1188.701782,1381.543823 1207.043335,1381.911987 1225.367432,1382.074829 
	C1228.987183,1382.106934 1231.552856,1381.067261 1234.125122,1378.484863 
	C1271.746460,1340.714478 1309.342041,1302.916260 1347.259888,1265.444580 
	C1356.661011,1256.153931 1355.069702,1248.730957 1347.125488,1240.690186 
	C1329.913940,1223.269531 1312.557373,1205.991577 1295.167480,1188.748657 
	C1292.964478,1186.564453 1290.445435,1184.400635 1287.657349,1183.163818 
	C1280.682861,1180.069458 1275.206909,1183.271851 1270.307373,1188.175537 
	C1232.627075,1225.887695 1194.960815,1263.614136 1157.158203,1301.203491 
	C1154.042480,1304.301636 1152.380127,1307.403320 1153.000000,1312.649780 
z"/>
<path fill="#343434" opacity="1.000000" stroke="none" 
	d="
M702.223755,964.346008 
	C707.032776,952.736084 713.750549,943.237183 725.323730,938.223267 
	C743.112732,930.516418 762.869568,937.267761 773.154297,954.618469 
	C782.927246,971.105652 784.395203,989.181824 782.485535,1007.728027 
	C781.419983,1018.076843 778.493408,1027.931885 772.928284,1036.852417 
	C757.007019,1062.373413 722.561646,1062.313110 706.929321,1036.632324 
	C697.037231,1020.381653 695.576782,1002.416077 697.570862,984.069275 
	C698.281616,977.530334 700.539062,971.159485 702.223755,964.346008 
z"/>
</svg>